<svg width="375" height="44" viewBox="0 0 375 44" fill="none" xmlns="http://www.w3.org/2000/svg">
<path opacity="0.35" d="M336.5 20C336.5 18.8034 337.47 17.8333 338.667 17.8333H355.333C356.53 17.8333 357.5 18.8034 357.5 20V26C357.5 27.1966 356.53 28.1667 355.333 28.1667H338.667C337.47 28.1667 336.5 27.1966 336.5 26V20Z" stroke="#272727"/>
<path opacity="0.4" d="M359 21V25C359.805 24.6612 360.328 23.8731 360.328 23C360.328 22.1269 359.805 21.3388 359 21Z" fill="#272727"/>
<path d="M338 20.6667C338 19.9303 338.597 19.3333 339.333 19.3333H354.667C355.403 19.3333 356 19.9303 356 20.6667V25.3333C356 26.0697 355.403 26.6667 354.667 26.6667H339.333C338.597 26.6667 338 26.0697 338 25.3333V20.6667Z" fill="#272727"/>
<path fill-rule="evenodd" clip-rule="evenodd" d="M323.33 19.608C325.546 19.6081 327.677 20.4596 329.283 21.9863C329.404 22.1042 329.598 22.1027 329.717 21.983L330.873 20.8163C330.933 20.7556 330.967 20.6734 330.966 20.5878C330.966 20.5022 330.931 20.4204 330.87 20.3603C326.655 16.3208 320.005 16.3208 315.79 20.3603C315.729 20.4203 315.694 20.5021 315.694 20.5877C315.693 20.6733 315.727 20.7556 315.787 20.8163L316.943 21.983C317.062 22.1029 317.256 22.1044 317.377 21.9863C318.983 20.4595 321.114 19.608 323.33 19.608ZM323.33 23.4037C324.548 23.4036 325.722 23.8561 326.624 24.6733C326.746 24.7893 326.939 24.7868 327.058 24.6677L328.212 23.501C328.273 23.4398 328.307 23.3568 328.306 23.2705C328.305 23.1843 328.27 23.102 328.208 23.042C325.459 20.4856 321.204 20.4856 318.455 23.042C318.393 23.102 318.358 23.1843 318.357 23.2706C318.356 23.3569 318.39 23.4399 318.451 23.501L319.605 24.6677C319.724 24.7868 319.917 24.7893 320.039 24.6733C320.941 23.8567 322.114 23.4042 323.33 23.4037ZM325.643 25.9575C325.645 26.044 325.611 26.1274 325.549 26.188L323.552 28.2037C323.493 28.2629 323.414 28.2963 323.33 28.2963C323.247 28.2963 323.167 28.2629 323.109 28.2037L321.111 26.188C321.049 26.1274 321.015 26.0439 321.017 25.9574C321.019 25.8709 321.056 25.789 321.121 25.731C322.396 24.6521 324.264 24.6521 325.54 25.731C325.604 25.7891 325.642 25.871 325.643 25.9575Z" fill="#272727"/>
<path fill-rule="evenodd" clip-rule="evenodd" d="M309.667 17.6667H308.667C308.114 17.6667 307.667 18.1144 307.667 18.6667V27.3333C307.667 27.8856 308.114 28.3333 308.667 28.3333H309.667C310.219 28.3333 310.667 27.8856 310.667 27.3333V18.6667C310.667 18.1144 310.219 17.6667 309.667 17.6667ZM304 20H305C305.552 20 306 20.4477 306 21V27.3333C306 27.8856 305.552 28.3333 305 28.3333H304C303.448 28.3333 303 27.8856 303 27.3333V21C303 20.4477 303.448 20 304 20ZM300.333 22.3333H299.333C298.781 22.3333 298.333 22.781 298.333 23.3333V27.3333C298.333 27.8856 298.781 28.3333 299.333 28.3333H300.333C300.886 28.3333 301.333 27.8856 301.333 27.3333V23.3333C301.333 22.781 300.886 22.3333 300.333 22.3333ZM295.667 24.3333H294.667C294.114 24.3333 293.667 24.781 293.667 25.3333V27.3333C293.667 27.8856 294.114 28.3333 294.667 28.3333H295.667C296.219 28.3333 296.667 27.8856 296.667 27.3333V25.3333C296.667 24.781 296.219 24.3333 295.667 24.3333Z" fill="#272727"/>
<path d="M38.5104 17.35C39.9504 17.35 41.0654 17.8 41.8554 18.7C42.6554 19.6 43.0554 20.89 43.0554 22.57C43.0554 23.75 42.8404 24.76 42.4104 25.6C41.9804 26.43 41.3754 27.065 40.5955 27.505C39.8254 27.935 38.9304 28.15 37.9104 28.15C37.3704 28.15 36.8604 28.095 36.3804 27.985C35.9104 27.865 35.5004 27.695 35.1504 27.475L35.8704 26.005C36.3904 26.345 37.0554 26.515 37.8654 26.515C38.8754 26.515 39.6654 26.205 40.2354 25.585C40.8054 24.965 41.0904 24.07 41.0904 22.9V22.885C40.7805 23.245 40.3855 23.52 39.9054 23.71C39.4254 23.89 38.8854 23.98 38.2854 23.98C37.5954 23.98 36.9754 23.85 36.4254 23.59C35.8754 23.32 35.4454 22.94 35.1354 22.45C34.8254 21.96 34.6704 21.395 34.6704 20.755C34.6704 20.075 34.8404 19.48 35.1804 18.97C35.5204 18.45 35.9804 18.05 36.5604 17.77C37.1404 17.49 37.7904 17.35 38.5104 17.35ZM38.6604 22.45C39.2904 22.45 39.8004 22.28 40.1904 21.94C40.5904 21.6 40.7904 21.17 40.7904 20.65C40.7904 20.14 40.5954 19.72 40.2054 19.39C39.8254 19.05 39.2954 18.88 38.6154 18.88C38.0054 18.88 37.5104 19.045 37.1304 19.375C36.7504 19.695 36.5604 20.125 36.5604 20.665C36.5604 21.215 36.7504 21.65 37.1304 21.97C37.5104 22.29 38.0204 22.45 38.6604 22.45ZM45.2447 22.39C44.9047 22.39 44.6147 22.275 44.3747 22.045C44.1347 21.805 44.0147 21.505 44.0147 21.145C44.0147 20.775 44.1297 20.475 44.3597 20.245C44.5997 20.015 44.8947 19.9 45.2447 19.9C45.5947 19.9 45.8847 20.015 46.1147 20.245C46.3547 20.475 46.4747 20.775 46.4747 21.145C46.4747 21.505 46.3547 21.805 46.1147 22.045C45.8747 22.275 45.5847 22.39 45.2447 22.39ZM45.2447 28.105C44.9047 28.105 44.6147 27.99 44.3747 27.76C44.1347 27.52 44.0147 27.22 44.0147 26.86C44.0147 26.49 44.1297 26.19 44.3597 25.96C44.5997 25.73 44.8947 25.615 45.2447 25.615C45.5947 25.615 45.8847 25.73 46.1147 25.96C46.3547 26.19 46.4747 26.49 46.4747 26.86C46.4747 27.22 46.3547 27.52 46.1147 27.76C45.8747 27.99 45.5847 28.105 45.2447 28.105ZM56.7969 25.615H54.9369V28H53.0469V25.615H47.2869V24.265L52.4619 17.5H54.5469L49.6719 23.965H53.1069V21.85H54.9369V23.965H56.7969V25.615ZM60.5667 17.5V28H58.6167V19.135H56.3967V17.5H60.5667Z" fill="#272727"/>
</svg>
